<?xml version="1.0" encoding="utf-8"?>
<!-- Generator: Adobe Illustrator 18.0.0, SVG Export Plug-In . SVG Version: 6.00 Build 0)  -->
<!DOCTYPE svg PUBLIC "-//W3C//DTD SVG 1.1//EN" "http://www.w3.org/Graphics/SVG/1.1/DTD/svg11.dtd">
<svg version="1.1" xmlns="http://www.w3.org/2000/svg" xmlns:xlink="http://www.w3.org/1999/xlink" x="0px" y="0px"
	 viewBox="0 0 212 212" enable-background="new 0 0 212 212" xml:space="preserve">
<g id="Capa_1" display="none">
	<path display="inline" fill="#3165D3" d="M0,0"/>
	<path display="inline" fill="#3165D3" d="M212,212"/>
	<g transform="translate(-35.3625,-35.3625) rotate(45, 35.3625, 35.3625)" display="inline" opacity="0.15">
		<rect x="25" y="0" fill="#222222" width="25" height="75"/>
		<rect x="0" y="25" fill="#222222" width="75" height="25"/>
	</g>
	<g transform="translate(176.8125,-35.3625) rotate(45, 35.3625, 35.3625)" display="inline" opacity="0.15">
		<rect x="25" y="0" fill="#222222" width="25" height="75"/>
		<rect x="0" y="25" fill="#222222" width="75" height="25"/>
	</g>
	<g transform="translate(-35.3625,176.81249999999997) rotate(45, 35.3625, 35.3625)" display="inline" opacity="0.15">
		<rect x="25" y="0" fill="#222222" width="25" height="75"/>
		<rect x="0" y="25" fill="#222222" width="75" height="25"/>
	</g>
	<g transform="translate(176.8125,176.81249999999997) rotate(45, 35.3625, 35.3625)" display="inline" opacity="0.15">
		<rect x="25" y="0" fill="#222222" width="25" height="75"/>
		<rect x="0" y="25" fill="#222222" width="75" height="25"/>
	</g>
	<g transform="translate(0.0,-17.68125) rotate(45, 35.3625, 35.3625)" display="inline" opacity="0.15">
		<rect x="25" y="0" fill="#222222" width="25" height="75"/>
		<rect x="0" y="25" fill="#222222" width="75" height="25"/>
	</g>
	<g transform="translate(0.0,194.49374999999995) rotate(45, 35.3625, 35.3625)" display="inline" opacity="0.15">
		<rect x="25" y="0" fill="#222222" width="25" height="75"/>
		<rect x="0" y="25" fill="#222222" width="75" height="25"/>
	</g>
	<g transform="translate(35.3625,-35.3625) rotate(45, 35.3625, 35.3625)" display="inline" opacity="0.1413">
		<rect x="25" y="0" fill="#DDDDDD" width="25" height="75"/>
		<rect x="0" y="25" fill="#DDDDDD" width="75" height="25"/>
	</g>
	<g transform="translate(35.3625,176.81249999999997) rotate(45, 35.3625, 35.3625)" display="inline" opacity="0.1413">
		<rect x="25" y="0" fill="#DDDDDD" width="25" height="75"/>
		<rect x="0" y="25" fill="#DDDDDD" width="75" height="25"/>
	</g>
	<g transform="translate(70.725,-17.68125) rotate(45, 35.3625, 35.3625)" display="inline" opacity="7.200000e-002">
		<rect x="25" y="0" fill="#DDDDDD" width="25" height="75"/>
		<rect x="0" y="25" fill="#DDDDDD" width="75" height="25"/>
	</g>
	<g transform="translate(70.725,194.49374999999995) rotate(45, 35.3625, 35.3625)" display="inline" opacity="7.200000e-002">
		<rect x="25" y="0" fill="#DDDDDD" width="25" height="75"/>
		<rect x="0" y="25" fill="#DDDDDD" width="75" height="25"/>
	</g>
	<g transform="translate(106.08749999999999,-35.3625) rotate(45, 35.3625, 35.3625)" display="inline" opacity="8.933333e-002">
		<rect x="25" y="0" fill="#DDDDDD" width="25" height="75"/>
		<rect x="0" y="25" fill="#DDDDDD" width="75" height="25"/>
	</g>
	
		<g transform="translate(106.08749999999999,176.81249999999997) rotate(45, 35.3625, 35.3625)" display="inline" opacity="8.933333e-002">
		<rect x="25" y="0" fill="#DDDDDD" width="25" height="75"/>
		<rect x="0" y="25" fill="#DDDDDD" width="75" height="25"/>
	</g>
	<g transform="translate(141.45,-17.68125) rotate(45, 35.3625, 35.3625)" display="inline" opacity="8.933333e-002">
		<rect x="25" y="0" fill="#DDDDDD" width="25" height="75"/>
		<rect x="0" y="25" fill="#DDDDDD" width="75" height="25"/>
	</g>
	<g transform="translate(141.45,194.49374999999995) rotate(45, 35.3625, 35.3625)" display="inline" opacity="8.933333e-002">
		<rect x="25" y="0" fill="#DDDDDD" width="25" height="75"/>
		<rect x="0" y="25" fill="#DDDDDD" width="75" height="25"/>
	</g>
	<g transform="translate(-35.3625,0.0) rotate(45, 35.3625, 35.3625)" display="inline" opacity="0.1067">
		<rect x="25" y="0" fill="#DDDDDD" width="25" height="75"/>
		<rect x="0" y="25" fill="#DDDDDD" width="75" height="25"/>
	</g>
	<g transform="translate(176.8125,0.0) rotate(45, 35.3625, 35.3625)" display="inline" opacity="0.1067">
		<rect x="25" y="0" fill="#DDDDDD" width="25" height="75"/>
		<rect x="0" y="25" fill="#DDDDDD" width="75" height="25"/>
	</g>
	<g transform="translate(0.0,17.68125) rotate(45, 35.3625, 35.3625)" display="inline" opacity="6.333333e-002">
		<rect x="25" y="0" fill="#222222" width="25" height="75"/>
		<rect x="0" y="25" fill="#222222" width="75" height="25"/>
	</g>
	<g transform="translate(35.3625,0.0) rotate(45, 35.3625, 35.3625)" display="inline" opacity="2.000000e-002">
		<rect x="25" y="0" fill="#DDDDDD" width="25" height="75"/>
		<rect x="0" y="25" fill="#DDDDDD" width="75" height="25"/>
	</g>
	<g transform="translate(70.725,17.68125) rotate(45, 35.3625, 35.3625)" display="inline" opacity="2.866667e-002">
		<rect x="25" y="0" fill="#222222" width="25" height="75"/>
		<rect x="0" y="25" fill="#222222" width="75" height="25"/>
	</g>
	<g transform="translate(106.08749999999999,0.0) rotate(45, 35.3625, 35.3625)" display="inline" opacity="5.466667e-002">
		<rect x="25" y="0" fill="#DDDDDD" width="25" height="75"/>
		<rect x="0" y="25" fill="#DDDDDD" width="75" height="25"/>
	</g>
	<g transform="translate(141.45,17.68125) rotate(45, 35.3625, 35.3625)" display="inline" opacity="4.600000e-002">
		<rect x="25" y="0" fill="#222222" width="25" height="75"/>
		<rect x="0" y="25" fill="#222222" width="75" height="25"/>
	</g>
	<g transform="translate(-35.3625,35.3625) rotate(45, 35.3625, 35.3625)" display="inline" opacity="2.000000e-002">
		<rect x="25" y="0" fill="#DDDDDD" width="25" height="75"/>
		<rect x="0" y="25" fill="#DDDDDD" width="75" height="25"/>
	</g>
	<g transform="translate(176.8125,35.3625) rotate(45, 35.3625, 35.3625)" display="inline" opacity="2.000000e-002">
		<rect x="25" y="0" fill="#DDDDDD" width="25" height="75"/>
		<rect x="0" y="25" fill="#DDDDDD" width="75" height="25"/>
	</g>
	<g transform="translate(0.0,53.04374999999999) rotate(45, 35.3625, 35.3625)" display="inline" opacity="7.200000e-002">
		<rect x="25" y="0" fill="#DDDDDD" width="25" height="75"/>
		<rect x="0" y="25" fill="#DDDDDD" width="75" height="25"/>
	</g>
	<g transform="translate(35.3625,35.3625) rotate(45, 35.3625, 35.3625)" display="inline" opacity="7.200000e-002">
		<rect x="25" y="0" fill="#DDDDDD" width="25" height="75"/>
		<rect x="0" y="25" fill="#DDDDDD" width="75" height="25"/>
	</g>
	<g transform="translate(70.725,53.04374999999999) rotate(45, 35.3625, 35.3625)" display="inline" opacity="4.600000e-002">
		<rect x="25" y="0" fill="#222222" width="25" height="75"/>
		<rect x="0" y="25" fill="#222222" width="75" height="25"/>
	</g>
	<g transform="translate(106.08749999999999,35.3625) rotate(45, 35.3625, 35.3625)" display="inline" opacity="6.333333e-002">
		<rect x="25" y="0" fill="#222222" width="25" height="75"/>
		<rect x="0" y="25" fill="#222222" width="75" height="25"/>
	</g>
	<g transform="translate(141.45,53.04374999999999) rotate(45, 35.3625, 35.3625)" display="inline" opacity="0.124">
		<rect x="25" y="0" fill="#DDDDDD" width="25" height="75"/>
		<rect x="0" y="25" fill="#DDDDDD" width="75" height="25"/>
	</g>
	<g transform="translate(-35.3625,70.72500000000001) rotate(45, 35.3625, 35.3625)" display="inline" opacity="0.1327">
		<rect x="25" y="0" fill="#222222" width="25" height="75"/>
		<rect x="0" y="25" fill="#222222" width="75" height="25"/>
	</g>
	<g transform="translate(176.8125,70.72500000000001) rotate(45, 35.3625, 35.3625)" display="inline" opacity="0.1327">
		<rect x="25" y="0" fill="#222222" width="25" height="75"/>
		<rect x="0" y="25" fill="#222222" width="75" height="25"/>
	</g>
	<g transform="translate(0.0,88.40625000000001) rotate(45, 35.3625, 35.3625)" display="inline" opacity="9.800000e-002">
		<rect x="25" y="0" fill="#222222" width="25" height="75"/>
		<rect x="0" y="25" fill="#222222" width="75" height="25"/>
	</g>
	<g transform="translate(35.3625,70.72500000000001) rotate(45, 35.3625, 35.3625)" display="inline" opacity="4.600000e-002">
		<rect x="25" y="0" fill="#222222" width="25" height="75"/>
		<rect x="0" y="25" fill="#222222" width="75" height="25"/>
	</g>
	<g transform="translate(70.725,88.40625000000001) rotate(45, 35.3625, 35.3625)" display="inline" opacity="6.333333e-002">
		<rect x="25" y="0" fill="#222222" width="25" height="75"/>
		<rect x="0" y="25" fill="#222222" width="75" height="25"/>
	</g>
	<g transform="translate(106.08749999999999,70.72500000000001) rotate(45, 35.3625, 35.3625)" display="inline" opacity="0.15">
		<rect x="25" y="0" fill="#222222" width="25" height="75"/>
		<rect x="0" y="25" fill="#222222" width="75" height="25"/>
	</g>
	<g transform="translate(141.45,88.40625000000001) rotate(45, 35.3625, 35.3625)" display="inline" opacity="8.066667e-002">
		<rect x="25" y="0" fill="#222222" width="25" height="75"/>
		<rect x="0" y="25" fill="#222222" width="75" height="25"/>
	</g>
	<g transform="translate(-35.3625,106.08749999999998) rotate(45, 35.3625, 35.3625)" display="inline" opacity="2.866667e-002">
		<rect x="25" y="0" fill="#222222" width="25" height="75"/>
		<rect x="0" y="25" fill="#222222" width="75" height="25"/>
	</g>
	<g transform="translate(176.8125,106.08749999999998) rotate(45, 35.3625, 35.3625)" display="inline" opacity="2.866667e-002">
		<rect x="25" y="0" fill="#222222" width="25" height="75"/>
		<rect x="0" y="25" fill="#222222" width="75" height="25"/>
	</g>
	<g transform="translate(0.0,123.76874999999995) rotate(45, 35.3625, 35.3625)" display="inline" opacity="7.200000e-002">
		<rect x="25" y="0" fill="#DDDDDD" width="25" height="75"/>
		<rect x="0" y="25" fill="#DDDDDD" width="75" height="25"/>
	</g>
	<g transform="translate(35.3625,106.08749999999998) rotate(45, 35.3625, 35.3625)" display="inline" opacity="9.800000e-002">
		<rect x="25" y="0" fill="#222222" width="25" height="75"/>
		<rect x="0" y="25" fill="#222222" width="75" height="25"/>
	</g>
	<g transform="translate(70.725,123.76874999999995) rotate(45, 35.3625, 35.3625)" display="inline" opacity="2.866667e-002">
		<rect x="25" y="0" fill="#222222" width="25" height="75"/>
		<rect x="0" y="25" fill="#222222" width="75" height="25"/>
	</g>
	
		<g transform="translate(106.08749999999999,106.08749999999998) rotate(45, 35.3625, 35.3625)" display="inline" opacity="8.933333e-002">
		<rect x="25" y="0" fill="#DDDDDD" width="25" height="75"/>
		<rect x="0" y="25" fill="#DDDDDD" width="75" height="25"/>
	</g>
	<g transform="translate(141.45,123.76874999999995) rotate(45, 35.3625, 35.3625)" display="inline" opacity="8.066667e-002">
		<rect x="25" y="0" fill="#222222" width="25" height="75"/>
		<rect x="0" y="25" fill="#222222" width="75" height="25"/>
	</g>
	<g transform="translate(-35.3625,141.45) rotate(45, 35.3625, 35.3625)" display="inline" opacity="0.1153">
		<rect x="25" y="0" fill="#222222" width="25" height="75"/>
		<rect x="0" y="25" fill="#222222" width="75" height="25"/>
	</g>
	<g transform="translate(176.8125,141.45) rotate(45, 35.3625, 35.3625)" display="inline" opacity="0.1153">
		<rect x="25" y="0" fill="#222222" width="25" height="75"/>
		<rect x="0" y="25" fill="#222222" width="75" height="25"/>
	</g>
	<g transform="translate(-35.3625,-70.72499999999997) rotate(45, 35.3625, 35.3625)" display="inline" opacity="0.1153">
		<rect x="25" y="0" fill="#222222" width="25" height="75"/>
		<rect x="0" y="25" fill="#222222" width="75" height="25"/>
	</g>
	<g transform="translate(0.0,159.13124999999997) rotate(45, 35.3625, 35.3625)" display="inline" opacity="8.066667e-002">
		<rect x="25" y="0" fill="#222222" width="25" height="75"/>
		<rect x="0" y="25" fill="#222222" width="75" height="25"/>
	</g>
	<g transform="translate(0.0,-53.04374999999999) rotate(45, 35.3625, 35.3625)" display="inline" opacity="8.066667e-002">
		<rect x="25" y="0" fill="#222222" width="25" height="75"/>
		<rect x="0" y="25" fill="#222222" width="75" height="25"/>
	</g>
	<g transform="translate(35.3625,141.45) rotate(45, 35.3625, 35.3625)" display="inline" opacity="0.1327">
		<rect x="25" y="0" fill="#222222" width="25" height="75"/>
		<rect x="0" y="25" fill="#222222" width="75" height="25"/>
	</g>
	<g transform="translate(35.3625,-70.72499999999997) rotate(45, 35.3625, 35.3625)" display="inline" opacity="0.1327">
		<rect x="25" y="0" fill="#222222" width="25" height="75"/>
		<rect x="0" y="25" fill="#222222" width="75" height="25"/>
	</g>
	<g transform="translate(70.725,159.13124999999997) rotate(45, 35.3625, 35.3625)" display="inline" opacity="0.1153">
		<rect x="25" y="0" fill="#222222" width="25" height="75"/>
		<rect x="0" y="25" fill="#222222" width="75" height="25"/>
	</g>
	<g transform="translate(70.725,-53.04374999999999) rotate(45, 35.3625, 35.3625)" display="inline" opacity="0.1153">
		<rect x="25" y="0" fill="#222222" width="25" height="75"/>
		<rect x="0" y="25" fill="#222222" width="75" height="25"/>
	</g>
	<g transform="translate(106.08749999999999,141.45) rotate(45, 35.3625, 35.3625)" display="inline" opacity="4.600000e-002">
		<rect x="25" y="0" fill="#222222" width="25" height="75"/>
		<rect x="0" y="25" fill="#222222" width="75" height="25"/>
	</g>
	
		<g transform="translate(106.08749999999999,-70.72499999999997) rotate(45, 35.3625, 35.3625)" display="inline" opacity="4.600000e-002">
		<rect x="25" y="0" fill="#222222" width="25" height="75"/>
		<rect x="0" y="25" fill="#222222" width="75" height="25"/>
	</g>
	<g transform="translate(141.45,159.13124999999997) rotate(45, 35.3625, 35.3625)" display="inline" opacity="8.933333e-002">
		<rect x="25" y="0" fill="#DDDDDD" width="25" height="75"/>
		<rect x="0" y="25" fill="#DDDDDD" width="75" height="25"/>
	</g>
	<g transform="translate(141.45,-53.04374999999999) rotate(45, 35.3625, 35.3625)" display="inline" opacity="8.933333e-002">
		<rect x="25" y="0" fill="#DDDDDD" width="25" height="75"/>
		<rect x="0" y="25" fill="#DDDDDD" width="75" height="25"/>
	</g>
</g>
<g id="Capa_3" display="none">
	<path display="inline" fill="#B8292F" d="M225.6,31.1l-3.5,0c0-1.4,0-2.8,0-4.3c0-4.9,0-9.8,0-14.8c3.4-1.5,3-6.2,0.3-8.3
		c0-2.2-0.2-4.3-1-6c-1.7-3.5-5.1-3.8-8.6-3.8c-6,0-12,0-18,0c-26.2,0-52.4,0.1-78.6,0.1c-0.7-1.3-2.1-2.3-4.2-2.3
		C86.6-8.6,61-9,35.5-9.3c-0.1,0-0.1-0.1-0.2-0.1c-2.6-0.9-5.1-0.9-7.6,0.2c-1.3,0.6-2.3,1.5-2.9,2.7c-6.1,2-12.2,3.7-18.5,5
		C4.7-2.1,2.8-1.7,1.5-0.7C0.4-0.5-0.7-0.3-1.8-0.1C-4,0.2-5.1,1.7-5.3,3.5C-10.4,4.8-9.9,13-4,13.3c1.1,0.1,2.2,0.1,3.4,0.2
		c0,0.7,0,1.5,0,2.2c-1.5,1.8-1.5,4.7-0.1,6.6c0,2.9,0,5.9,0.1,8.8c-0.2,0.9-0.4,1.7-0.6,2.6c-0.2,0.9-0.1,1.8,0.1,2.5
		c-9.2,10.9-7.2,26.6-4,39.6c0.8,3.5,1.8,7,2.9,10.5c-0.6,7-0.9,14-1.1,21.1c-1.8,22-2.3,44-1.4,66c-0.2,8,0.3,16.1,1.5,24
		c0,0.1,0.1,0.3,0.1,0.4c-1.5,6.3-2.4,12.7-2.1,19.3c0.2,3.9,5.6,7.2,8.5,3.5c2.4-3,5.3-5.3,7.1-8.2c0.4,1.8,0.9,3.6,1.4,5.4
		c1.4,5.2,9.2,4.4,9.8-0.7c4.2,0,8.5-0.1,12.7-0.1c0.4,2.9,3.1,5.6,6.3,4.4c3.9-1.4,7.8-3,11.7-4.6l13.1-0.1
		c3.1,0.1,6.1,0.1,9.2-0.1c9.2-0.1,18.4-0.1,27.6-0.2c0,0,0,0,0,0.1c2.2,3.4,6.4,3,8.6,0c0,0,0.1-0.1,0.1-0.1c1.2,0,2.5,0,3.7,0
		c1.2,0.4,2.6,0.4,3.8,0c3.2,0,6.4,0,9.6-0.1c0.1,0.2,0.1,0.5,0.2,0.7c1.2,3.8,5.4,4.5,8.1,2.3c2.5,1.8,6.9,1.1,7.9-2.6
		c0-0.2,0.1-0.3,0.1-0.5c6,0,12-0.1,18-0.1c1.8,3,5.7,2.2,7.7-0.1l40.2-0.3c3.2,0,5.7-3.2,4.8-6.3c-1.1-3.9-1.8-8.1-2.1-12.2
		c0.9-0.8,1.6-2,1.6-3.6c1-30.3,0.9-60.6-0.5-90.9c0-0.9-0.3-1.7-0.7-2.4c0-1.6,0-3.2-0.1-4.9c2.7,2.8,8.7,1.6,8.7-3.4
		c0-16.3,0.1-32.6,0.1-48.8c2.1-0.7,4.2-1.5,6-2.7C232.3,37.8,230.6,31.1,225.6,31.1z"/>
</g>
<g id="Capa_1_copia">
	<line opacity="0.16" fill="#FFFFFF" x1="212" y1="212" x2="0" y2="212"/>
	<g transform="translate(-35.3625,-35.3625) rotate(45, 35.3625, 35.3625)" opacity="0.15">
		<rect x="25" y="0" fill="#222222" width="25" height="75"/>
		<rect x="0" y="25" fill="#222222" width="75" height="25"/>
	</g>
	<g transform="translate(176.8125,-35.3625) rotate(45, 35.3625, 35.3625)" opacity="0.15">
		<rect x="25" y="0" fill="#222222" width="25" height="75"/>
		<rect x="0" y="25" fill="#222222" width="75" height="25"/>
	</g>
	<g transform="translate(-35.3625,176.81249999999997) rotate(45, 35.3625, 35.3625)" opacity="0.15">
		<rect x="25" y="0" fill="#222222" width="25" height="75"/>
		<rect x="0" y="25" fill="#222222" width="75" height="25"/>
	</g>
	<g transform="translate(176.8125,176.81249999999997) rotate(45, 35.3625, 35.3625)" opacity="0.15">
		<rect x="25" y="0" fill="#222222" width="25" height="75"/>
		<rect x="0" y="25" fill="#222222" width="75" height="25"/>
	</g>
	<g transform="translate(0.0,-17.68125) rotate(45, 35.3625, 35.3625)" opacity="0.15">
		<rect x="25" y="0" fill="#222222" width="25" height="75"/>
		<rect x="0" y="25" fill="#222222" width="75" height="25"/>
	</g>
	<g transform="translate(0.0,194.49374999999995) rotate(45, 35.3625, 35.3625)" opacity="0.15">
		<rect x="25" y="0" fill="#222222" width="25" height="75"/>
		<rect x="0" y="25" fill="#222222" width="75" height="25"/>
	</g>
	<g transform="translate(35.3625,-35.3625) rotate(45, 35.3625, 35.3625)" opacity="0.1413">
		<rect x="25" y="0" fill="#DDDDDD" width="25" height="75"/>
		<rect x="0" y="25" fill="#DDDDDD" width="75" height="25"/>
	</g>
	<g transform="translate(35.3625,176.81249999999997) rotate(45, 35.3625, 35.3625)" opacity="0.1413">
		<rect x="25" y="0" fill="#DDDDDD" width="25" height="75"/>
		<rect x="0" y="25" fill="#DDDDDD" width="75" height="25"/>
	</g>
	<g transform="translate(70.725,-17.68125) rotate(45, 35.3625, 35.3625)" opacity="7.200000e-002">
		<rect x="25" y="0" fill="#DDDDDD" width="25" height="75"/>
		<rect x="0" y="25" fill="#DDDDDD" width="75" height="25"/>
	</g>
	<g transform="translate(70.725,194.49374999999995) rotate(45, 35.3625, 35.3625)" opacity="7.200000e-002">
		<rect x="25" y="0" fill="#DDDDDD" width="25" height="75"/>
		<rect x="0" y="25" fill="#DDDDDD" width="75" height="25"/>
	</g>
	<g transform="translate(106.08749999999999,-35.3625) rotate(45, 35.3625, 35.3625)" opacity="8.933333e-002">
		<rect x="25" y="0" fill="#DDDDDD" width="25" height="75"/>
		<rect x="0" y="25" fill="#DDDDDD" width="75" height="25"/>
	</g>
	<g transform="translate(106.08749999999999,176.81249999999997) rotate(45, 35.3625, 35.3625)" opacity="8.933333e-002">
		<rect x="25" y="0" fill="#DDDDDD" width="25" height="75"/>
		<rect x="0" y="25" fill="#DDDDDD" width="75" height="25"/>
	</g>
	<g transform="translate(141.45,-17.68125) rotate(45, 35.3625, 35.3625)" opacity="8.933333e-002">
		<rect x="25" y="0" fill="#DDDDDD" width="25" height="75"/>
		<rect x="0" y="25" fill="#DDDDDD" width="75" height="25"/>
	</g>
	<g transform="translate(141.45,194.49374999999995) rotate(45, 35.3625, 35.3625)" opacity="8.933333e-002">
		<rect x="25" y="0" fill="#DDDDDD" width="25" height="75"/>
		<rect x="0" y="25" fill="#DDDDDD" width="75" height="25"/>
	</g>
	<g transform="translate(-35.3625,0.0) rotate(45, 35.3625, 35.3625)" opacity="0.1067">
		<rect x="25" y="0" fill="#DDDDDD" width="25" height="75"/>
		<rect x="0" y="25" fill="#DDDDDD" width="75" height="25"/>
	</g>
	<g transform="translate(176.8125,0.0) rotate(45, 35.3625, 35.3625)" opacity="0.1067">
		<rect x="25" y="0" fill="#DDDDDD" width="25" height="75"/>
		<rect x="0" y="25" fill="#DDDDDD" width="75" height="25"/>
	</g>
	<g transform="translate(0.0,17.68125) rotate(45, 35.3625, 35.3625)" opacity="6.333333e-002">
		<rect x="25" y="0" fill="#222222" width="25" height="75"/>
		<rect x="0" y="25" fill="#222222" width="75" height="25"/>
	</g>
	<g transform="translate(35.3625,0.0) rotate(45, 35.3625, 35.3625)" opacity="2.000000e-002">
		<rect x="25" y="0" fill="#DDDDDD" width="25" height="75"/>
		<rect x="0" y="25" fill="#DDDDDD" width="75" height="25"/>
	</g>
	<g transform="translate(70.725,17.68125) rotate(45, 35.3625, 35.3625)" opacity="2.866667e-002">
		<rect x="25" y="0" fill="#222222" width="25" height="75"/>
		<rect x="0" y="25" fill="#222222" width="75" height="25"/>
	</g>
	<g transform="translate(106.08749999999999,0.0) rotate(45, 35.3625, 35.3625)" opacity="5.466667e-002">
		<rect x="25" y="0" fill="#DDDDDD" width="25" height="75"/>
		<rect x="0" y="25" fill="#DDDDDD" width="75" height="25"/>
	</g>
	<g transform="translate(141.45,17.68125) rotate(45, 35.3625, 35.3625)" opacity="4.600000e-002">
		<rect x="25" y="0" fill="#222222" width="25" height="75"/>
		<rect x="0" y="25" fill="#222222" width="75" height="25"/>
	</g>
	<g transform="translate(-35.3625,35.3625) rotate(45, 35.3625, 35.3625)" opacity="2.000000e-002">
		<rect x="25" y="0" fill="#DDDDDD" width="25" height="75"/>
		<rect x="0" y="25" fill="#DDDDDD" width="75" height="25"/>
	</g>
	<g transform="translate(176.8125,35.3625) rotate(45, 35.3625, 35.3625)" opacity="2.000000e-002">
		<rect x="25" y="0" fill="#DDDDDD" width="25" height="75"/>
		<rect x="0" y="25" fill="#DDDDDD" width="75" height="25"/>
	</g>
	<g transform="translate(0.0,53.04374999999999) rotate(45, 35.3625, 35.3625)" opacity="7.200000e-002">
		<rect x="25" y="0" fill="#DDDDDD" width="25" height="75"/>
		<rect x="0" y="25" fill="#DDDDDD" width="75" height="25"/>
	</g>
	<g transform="translate(35.3625,35.3625) rotate(45, 35.3625, 35.3625)" opacity="7.200000e-002">
		<rect x="25" y="0" fill="#DDDDDD" width="25" height="75"/>
		<rect x="0" y="25" fill="#DDDDDD" width="75" height="25"/>
	</g>
	<g transform="translate(70.725,53.04374999999999) rotate(45, 35.3625, 35.3625)" opacity="4.600000e-002">
		<rect x="25" y="0" fill="#222222" width="25" height="75"/>
		<rect x="0" y="25" fill="#222222" width="75" height="25"/>
	</g>
	<g transform="translate(106.08749999999999,35.3625) rotate(45, 35.3625, 35.3625)" opacity="6.333333e-002">
		<rect x="25" y="0" fill="#222222" width="25" height="75"/>
		<rect x="0" y="25" fill="#222222" width="75" height="25"/>
	</g>
	<g transform="translate(141.45,53.04374999999999) rotate(45, 35.3625, 35.3625)" opacity="0.124">
		<rect x="25" y="0" fill="#DDDDDD" width="25" height="75"/>
		<rect x="0" y="25" fill="#DDDDDD" width="75" height="25"/>
	</g>
	<g transform="translate(-35.3625,70.72500000000001) rotate(45, 35.3625, 35.3625)" opacity="0.1327">
		<rect x="25" y="0" fill="#222222" width="25" height="75"/>
		<rect x="0" y="25" fill="#222222" width="75" height="25"/>
	</g>
	<g transform="translate(176.8125,70.72500000000001) rotate(45, 35.3625, 35.3625)" opacity="0.1327">
		<rect x="25" y="0" fill="#222222" width="25" height="75"/>
		<rect x="0" y="25" fill="#222222" width="75" height="25"/>
	</g>
	<g transform="translate(0.0,88.40625000000001) rotate(45, 35.3625, 35.3625)" opacity="9.800000e-002">
		<rect x="25" y="0" fill="#222222" width="25" height="75"/>
		<rect x="0" y="25" fill="#222222" width="75" height="25"/>
	</g>
	<g transform="translate(35.3625,70.72500000000001) rotate(45, 35.3625, 35.3625)" opacity="4.600000e-002">
		<rect x="25" y="0" fill="#222222" width="25" height="75"/>
		<rect x="0" y="25" fill="#222222" width="75" height="25"/>
	</g>
	<g transform="translate(70.725,88.40625000000001) rotate(45, 35.3625, 35.3625)" opacity="6.333333e-002">
		<rect x="25" y="0" fill="#222222" width="25" height="75"/>
		<rect x="0" y="25" fill="#222222" width="75" height="25"/>
	</g>
	<g transform="translate(106.08749999999999,70.72500000000001) rotate(45, 35.3625, 35.3625)" opacity="0.15">
		<rect x="25" y="0" fill="#222222" width="25" height="75"/>
		<rect x="0" y="25" fill="#222222" width="75" height="25"/>
	</g>
	<g transform="translate(141.45,88.40625000000001) rotate(45, 35.3625, 35.3625)" opacity="8.066667e-002">
		<rect x="25" y="0" fill="#222222" width="25" height="75"/>
		<rect x="0" y="25" fill="#222222" width="75" height="25"/>
	</g>
	<g transform="translate(-35.3625,106.08749999999998) rotate(45, 35.3625, 35.3625)" opacity="2.866667e-002">
		<rect x="25" y="0" fill="#222222" width="25" height="75"/>
		<rect x="0" y="25" fill="#222222" width="75" height="25"/>
	</g>
	<g transform="translate(176.8125,106.08749999999998) rotate(45, 35.3625, 35.3625)" opacity="2.866667e-002">
		<rect x="25" y="0" fill="#222222" width="25" height="75"/>
		<rect x="0" y="25" fill="#222222" width="75" height="25"/>
	</g>
	<g transform="translate(0.0,123.76874999999995) rotate(45, 35.3625, 35.3625)" opacity="7.200000e-002">
		<rect x="25" y="0" fill="#DDDDDD" width="25" height="75"/>
		<rect x="0" y="25" fill="#DDDDDD" width="75" height="25"/>
	</g>
	<g transform="translate(35.3625,106.08749999999998) rotate(45, 35.3625, 35.3625)" opacity="9.800000e-002">
		<rect x="25" y="0" fill="#222222" width="25" height="75"/>
		<rect x="0" y="25" fill="#222222" width="75" height="25"/>
	</g>
	<g transform="translate(70.725,123.76874999999995) rotate(45, 35.3625, 35.3625)" opacity="2.866667e-002">
		<rect x="25" y="0" fill="#222222" width="25" height="75"/>
		<rect x="0" y="25" fill="#222222" width="75" height="25"/>
	</g>
	<g transform="translate(106.08749999999999,106.08749999999998) rotate(45, 35.3625, 35.3625)" opacity="8.933333e-002">
		<rect x="25" y="0" fill="#DDDDDD" width="25" height="75"/>
		<rect x="0" y="25" fill="#DDDDDD" width="75" height="25"/>
	</g>
	<g transform="translate(141.45,123.76874999999995) rotate(45, 35.3625, 35.3625)" opacity="8.066667e-002">
		<rect x="25" y="0" fill="#222222" width="25" height="75"/>
		<rect x="0" y="25" fill="#222222" width="75" height="25"/>
	</g>
	<g transform="translate(-35.3625,141.45) rotate(45, 35.3625, 35.3625)" opacity="0.1153">
		<rect x="25" y="0" fill="#222222" width="25" height="75"/>
		<rect x="0" y="25" fill="#222222" width="75" height="25"/>
	</g>
	<g transform="translate(176.8125,141.45) rotate(45, 35.3625, 35.3625)" opacity="0.1153">
		<rect x="25" y="0" fill="#222222" width="25" height="75"/>
		<rect x="0" y="25" fill="#222222" width="75" height="25"/>
	</g>
	<g transform="translate(-35.3625,-70.72499999999997) rotate(45, 35.3625, 35.3625)" opacity="0.1153">
		<rect x="25" y="0" fill="#222222" width="25" height="75"/>
		<rect x="0" y="25" fill="#222222" width="75" height="25"/>
	</g>
	<g transform="translate(0.0,159.13124999999997) rotate(45, 35.3625, 35.3625)" opacity="8.066667e-002">
		<rect x="25" y="0" fill="#222222" width="25" height="75"/>
		<rect x="0" y="25" fill="#222222" width="75" height="25"/>
	</g>
	<g transform="translate(0.0,-53.04374999999999) rotate(45, 35.3625, 35.3625)" opacity="8.066667e-002">
		<rect x="25" y="0" fill="#222222" width="25" height="75"/>
		<rect x="0" y="25" fill="#222222" width="75" height="25"/>
	</g>
	<g transform="translate(35.3625,141.45) rotate(45, 35.3625, 35.3625)" opacity="0.1327">
		<rect x="25" y="0" fill="#222222" width="25" height="75"/>
		<rect x="0" y="25" fill="#222222" width="75" height="25"/>
	</g>
	<g transform="translate(35.3625,-70.72499999999997) rotate(45, 35.3625, 35.3625)" opacity="0.1327">
		<rect x="25" y="0" fill="#222222" width="25" height="75"/>
		<rect x="0" y="25" fill="#222222" width="75" height="25"/>
	</g>
	<g transform="translate(70.725,159.13124999999997) rotate(45, 35.3625, 35.3625)" opacity="0.1153">
		<rect x="25" y="0" fill="#222222" width="25" height="75"/>
		<rect x="0" y="25" fill="#222222" width="75" height="25"/>
	</g>
	<g transform="translate(70.725,-53.04374999999999) rotate(45, 35.3625, 35.3625)" opacity="0.1153">
		<rect x="25" y="0" fill="#222222" width="25" height="75"/>
		<rect x="0" y="25" fill="#222222" width="75" height="25"/>
	</g>
	<g transform="translate(106.08749999999999,141.45) rotate(45, 35.3625, 35.3625)" opacity="4.600000e-002">
		<rect x="25" y="0" fill="#222222" width="25" height="75"/>
		<rect x="0" y="25" fill="#222222" width="75" height="25"/>
	</g>
	<g transform="translate(106.08749999999999,-70.72499999999997) rotate(45, 35.3625, 35.3625)" opacity="4.600000e-002">
		<rect x="25" y="0" fill="#222222" width="25" height="75"/>
		<rect x="0" y="25" fill="#222222" width="75" height="25"/>
	</g>
	<g transform="translate(141.45,159.13124999999997) rotate(45, 35.3625, 35.3625)" opacity="8.933333e-002">
		<rect x="25" y="0" fill="#DDDDDD" width="25" height="75"/>
		<rect x="0" y="25" fill="#DDDDDD" width="75" height="25"/>
	</g>
	<g transform="translate(141.45,-53.04374999999999) rotate(45, 35.3625, 35.3625)" opacity="8.933333e-002">
		<rect x="25" y="0" fill="#DDDDDD" width="25" height="75"/>
		<rect x="0" y="25" fill="#DDDDDD" width="75" height="25"/>
	</g>
</g>
</svg>
