<?xml version="1.0" encoding="utf-8"?>
<!-- Generator: Adobe Illustrator 18.0.0, SVG Export Plug-In . SVG Version: 6.00 Build 0)  -->
<!DOCTYPE svg PUBLIC "-//W3C//DTD SVG 1.1//EN" "http://www.w3.org/Graphics/SVG/1.1/DTD/svg11.dtd">
<svg version="1.1" id="Capa_1" xmlns="http://www.w3.org/2000/svg" xmlns:xlink="http://www.w3.org/1999/xlink" x="0px" y="0px"
	 viewBox="0 0 418 418" enable-background="new 0 0 418 418" xml:space="preserve">
<rect y="20" opacity="3.733333e-002" fill="#DDDDDD" enable-background="new    " width="418" height="7"/>
<rect y="37" opacity="0.124" fill="#DDDDDD" enable-background="new    " width="418" height="17"/>
<rect y="73" opacity="2.866667e-002" fill="#222222" enable-background="new    " width="418" height="6"/>
<rect y="95" opacity="8.933333e-002" fill="#DDDDDD" enable-background="new    " width="418" height="13"/>
<rect y="123" opacity="4.600000e-002" fill="#222222" enable-background="new    " width="418" height="8"/>
<rect y="145" opacity="9.800000e-002" fill="#222222" enable-background="new    " width="418" height="14"/>
<rect y="175" opacity="0.1327" fill="#222222" enable-background="new    " width="418" height="18"/>
<rect y="206" opacity="7.200000e-002" fill="#DDDDDD" enable-background="new    " width="418" height="11"/>
<rect y="224" opacity="2.866667e-002" fill="#222222" enable-background="new    " width="418" height="6"/>
<rect y="245" opacity="6.333333e-002" fill="#222222" enable-background="new    " width="418" height="10"/>
<rect y="267" opacity="5.466667e-002" fill="#DDDDDD" enable-background="new    " width="418" height="9"/>
<rect y="283" opacity="8.066667e-002" fill="#222222" enable-background="new    " width="418" height="12"/>
<rect y="310" opacity="3.733333e-002" fill="#DDDDDD" enable-background="new    " width="418" height="7"/>
<rect y="322" opacity="2.000000e-002" fill="#DDDDDD" enable-background="new    " width="418" height="5"/>
<rect y="335" opacity="9.800000e-002" fill="#222222" enable-background="new    " width="418" height="14"/>
<rect y="365" opacity="5.466667e-002" fill="#DDDDDD" enable-background="new    " width="418" height="9"/>
<rect y="390" opacity="2.866667e-002" fill="#222222" enable-background="new    " width="418" height="6"/>
<rect y="404" opacity="9.800000e-002" fill="#222222" enable-background="new    " width="418" height="14"/>
<rect x="20" opacity="3.733333e-002" fill="#DDDDDD" enable-background="new    " width="7" height="418"/>
<rect x="37" opacity="0.124" fill="#DDDDDD" enable-background="new    " width="17" height="418"/>
<rect x="73" opacity="2.866667e-002" fill="#222222" enable-background="new    " width="6" height="418"/>
<rect x="95" opacity="8.933333e-002" fill="#DDDDDD" enable-background="new    " width="13" height="418"/>
<rect x="123" opacity="4.600000e-002" fill="#222222" enable-background="new    " width="8" height="418"/>
<rect x="145" opacity="9.800000e-002" fill="#222222" enable-background="new    " width="14" height="418"/>
<rect x="175" opacity="0.1327" fill="#222222" enable-background="new    " width="18" height="418"/>
<rect x="206" opacity="7.200000e-002" fill="#DDDDDD" enable-background="new    " width="11" height="418"/>
<rect x="224" opacity="2.866667e-002" fill="#222222" enable-background="new    " width="6" height="418"/>
<rect x="245" opacity="6.333333e-002" fill="#222222" enable-background="new    " width="10" height="418"/>
<rect x="267" opacity="5.466667e-002" fill="#DDDDDD" enable-background="new    " width="9" height="418"/>
<rect x="283" opacity="8.066667e-002" fill="#222222" enable-background="new    " width="12" height="418"/>
<rect x="310" opacity="3.733333e-002" fill="#DDDDDD" enable-background="new    " width="7" height="418"/>
<rect x="322" opacity="2.000000e-002" fill="#DDDDDD" enable-background="new    " width="5" height="418"/>
<rect x="335" opacity="9.800000e-002" fill="#222222" enable-background="new    " width="14" height="418"/>
<rect x="365" opacity="5.466667e-002" fill="#DDDDDD" enable-background="new    " width="9" height="418"/>
<rect x="390" opacity="2.866667e-002" fill="#222222" enable-background="new    " width="6" height="418"/>
<rect x="404" opacity="9.800000e-002" fill="#222222" enable-background="new    " width="14" height="418"/>
</svg>
